<svg xmlns="http://www.w3.org/2000/svg" viewBox="0 0 512 512" role="img" aria-labelledby="title desc">
  <title id="title">Finance Tracker Logo</title>
  <desc id="desc">A calm app icon with stacked coins and an upward balance line.</desc>
  <defs>
    <linearGradient id="bg" x1="58" y1="56" x2="455" y2="454" gradientUnits="userSpaceOnUse">
      <stop offset="0" stop-color="#ecfeff"/>
      <stop offset="0.48" stop-color="#14b8a6"/>
      <stop offset="1" stop-color="#0f766e"/>
    </linearGradient>
    <linearGradient id="coin" x1="148" y1="140" x2="374" y2="391" gradientUnits="userSpaceOnUse">
      <stop offset="0" stop-color="#fef9c3"/>
      <stop offset="1" stop-color="#f59e0b"/>
    </linearGradient>
    <filter id="shadow" x="-20%" y="-20%" width="140%" height="140%">
      <feDropShadow dx="0" dy="18" stdDeviation="18" flood-color="#134e4a" flood-opacity="0.28"/>
    </filter>
  </defs>
  <rect width="512" height="512" fill="url(#bg)"/>
  <circle cx="363" cy="152" r="45" fill="#ccfbf1" opacity="0.85"/>
  <g filter="url(#shadow)">
    <ellipse cx="230" cy="338" rx="111" ry="38" fill="#fde68a"/>
    <path d="M119 304c0 22 50 40 111 40s111-18 111-40v34c0 22-50 40-111 40s-111-18-111-40z" fill="url(#coin)"/>
    <ellipse cx="230" cy="304" rx="111" ry="40" fill="#fef3c7"/>
    <path d="M149 291c19-16 49-26 82-26 35 0 66 10 84 27" fill="none" stroke="#d97706" stroke-width="14" stroke-linecap="round" opacity="0.7"/>
  </g>
  <path d="M135 263l67-62 54 41 105-111" fill="none" stroke="#f0fdfa" stroke-width="30" stroke-linecap="round" stroke-linejoin="round"/>
  <path d="M313 131h48v48" fill="none" stroke="#f0fdfa" stroke-width="30" stroke-linecap="round" stroke-linejoin="round"/>
  <path d="M135 263l67-62 54 41 105-111" fill="none" stroke="#0f766e" stroke-width="13" stroke-linecap="round" stroke-linejoin="round" opacity="0.65"/>
</svg>
